<svg xmlns="http://www.w3.org/2000/svg" width="276" height="217" viewBox="0 0 276 217">
    <path fill="#B51B58" fill-rule="evenodd" d="M137.669 217C71.873 213.012 12.836 157.169 1.766 85.576c-3.252-21.024-2.76-41.95 7.913-60.843C23.654-.01 46.549-7.087 68.779 7.597c9.98 6.591 19.011 15.137 28.267 23.108 5.702 4.91 10.936 10.533 16.517 15.641 35.573 32.553 47.37 32.929 83.547 1.709 14.44-12.463 29.374-22.9 47.913-24.957 18.748-2.081 30.825 8.34 30.973 29.875.084 12.01-1.084 25.1-5.227 35.905-19.095 49.802-49.145 89.066-91.39 114.113-12.64 7.49-27.738 9.49-41.71 14.009" opacity=".1"/>
</svg>
