<svg xmlns="http://www.w3.org/2000/svg" width="321" height="306" viewBox="0 0 321 306">
    <path fill="#00ACAC" fill-rule="evenodd" d="M87.529 249.407c-13.547-23.804-21.727-33.67-31.18-45.089-9.974-12.028-21.277-25.665-38.57-54.861-20.878-36.453-23.453-73.723-7.277-102.62 15.403-27.515 45.653-43.916 82.986-45l1.669-.01c32.852 0 49.787-.46 66.167-.903C178.095.467 195.425 0 228.996 0h2.162c35.93 0 65.06 15.566 79.908 42.703 16.152 29.51 12.477 66.685-10.073 101.996-23.644 36.698-28.272 45.6-40.644 69.39-4.532 8.72-10.171 19.568-18.058 34.296C215.483 298.508 181.54 306 163.697 306c-30.468 0-58.191-20.614-76.168-56.593z" opacity=".1"/>
</svg>
