<svg xmlns="http://www.w3.org/2000/svg" width="58" height="50" viewBox="0 0 58 50">
    <path fill="#00ACAC" fill-rule="evenodd" d="M31.93 45.505c-.786-2.152-1.65-4.277-2.54-6.388-1.012-2.4-2.351-2.581-4.07-.575-1.992 2.325-3.707 4.974-5.991 6.947-4.555 3.933-10.513 2.15-11.937-3.434-.367-1.441-.131-3.132.184-4.63.242-1.15.938-2.25 1.615-3.246 1.813-2.672 1.677-5.195-.26-7.72-1.785-2.325-3.672-4.593-5.231-7.068C2.31 17.185.92 14.841.218 12.357-.84 8.62 2.108 5.974 5.644 7.487c2.218.948 4.177 2.635 6.075 4.21 3.064 2.542 4.37 2.249 5.589-1.547.46-1.432.85-2.89 1.352-4.305.333-.94.728-1.877 1.24-2.725 1.212-2.014 2.816-3.418 5.37-3.066 2.678.37 3.725 2.334 4.417 4.642.862 2.874 1.502 5.842 2.635 8.602 1.324 3.226 2.685 3.847 6.065 3.03 2.74-.663 5.4-1.673 8.086-2.556 2.084-.685 4.13-1.507 6.242-2.088 1.665-.457 3.323-.193 4.37 1.388 1.066 1.612 1.307 3.56.15 5.066-1.322 1.72-3.017 3.2-4.743 4.526-1.97 1.514-4.173 2.71-6.236 4.104-2.082 1.408-3.017 3.395-2.546 5.931.472 2.539 1.195 5.043 1.471 7.6.196 1.812.095 3.753-.344 5.517-.705 2.836-2.951 4.183-6.753 4.177-2.718.118-4.987-1.295-6.154-4.488z"/>
</svg>
